<svg width="1400" height="1000" viewBox="0 0 1400 1000" fill="none" xmlns="http://www.w3.org/2000/svg"><defs><linearGradient id="bg" x1="130" y1="70" x2="1320" y2="920" gradientUnits="userSpaceOnUse"><stop stop-color="#0F2217"/><stop offset="1" stop-color="#152D20"/></linearGradient></defs><rect width="1400" height="1000" fill="url(#bg)"/><g opacity="0.45" stroke="#8DC460"><path d="M120 760C250 650 400 610 570 650C760 690 890 820 1080 840C1180 850 1270 810 1330 760"/><path d="M100 700C250 590 390 540 560 570C760 610 900 730 1100 760C1210 780 1290 740 1340 700"/></g><g stroke="#DFF5AE" stroke-opacity="0.22"><path d="M180 180L1220 180"/><path d="M180 240L1220 240"/><path d="M180 300L1220 300"/><path d="M180 360L1220 360"/><path d="M180 420L1220 420"/><path d="M180 480L1220 480"/><path d="M180 540L1220 540"/><path d="M180 600L1220 600"/></g><circle cx="350" cy="260" r="120" fill="#9FD36A" fill-opacity="0.15"/><circle cx="1030" cy="380" r="170" fill="#CDE88E" fill-opacity="0.11"/></svg>