<svg width="1600" height="1100" viewBox="0 0 1600 1100" fill="none" xmlns="http://www.w3.org/2000/svg">
<defs><radialGradient id="g1" cx="0" cy="0" r="1" gradientUnits="userSpaceOnUse" gradientTransform="translate(410 260) rotate(32) scale(650 480)"><stop stop-color="#CDE88E"/><stop offset="1" stop-color="#0D1F15" stop-opacity="0"/></radialGradient><radialGradient id="g2" cx="0" cy="0" r="1" gradientUnits="userSpaceOnUse" gradientTransform="translate(1220 180) rotate(146) scale(540 420)"><stop stop-color="#8FBF5C"/><stop offset="1" stop-color="#0D1F15" stop-opacity="0"/></radialGradient></defs>
<rect width="1600" height="1100" fill="#08150E"/><rect width="1600" height="1100" fill="url(#g1)"/><rect width="1600" height="1100" fill="url(#g2)"/>
<g opacity="0.28" stroke="#DDF4AD" stroke-width="1.3">
<path d="M-30 760C150 660 380 630 560 700C740 770 960 860 1180 790C1320 745 1470 650 1640 610"/>
<path d="M-40 820C150 740 360 710 560 770C760 830 930 920 1160 870C1320 835 1490 760 1640 720"/>
<path d="M-40 700C170 600 380 580 590 640C810 710 990 800 1220 740C1380 700 1500 620 1650 580"/>
</g>
<g opacity="0.35" fill="#EAF9CA">
<circle cx="245" cy="170" r="2.4"/><circle cx="330" cy="260" r="1.8"/><circle cx="1110" cy="300" r="2.4"/><circle cx="1180" cy="220" r="1.9"/><circle cx="1280" cy="320" r="1.4"/>
</g></svg>